<?xml version="1.0" standalone="no"?>
<!DOCTYPE svg PUBLIC "-//W3C//DTD SVG 20010904//EN"
 "http://www.w3.org/TR/2001/REC-SVG-20010904/DTD/svg10.dtd">
<svg version="1.0" xmlns="http://www.w3.org/2000/svg"
 width="700.000000pt" height="700.000000pt" viewBox="0 0 700.000000 700.000000"
 preserveAspectRatio="xMidYMid meet">
<metadata>
Created by potrace 1.11, written by Peter Selinger 2001-2013
</metadata>
<g transform="translate(0.000000,700.000000) scale(0.100000,-0.100000)"
fill="#000000" stroke="none">
<path d="M2636 6518 c3 -5 10 -6 15 -3 13 9 11 12 -6 12 -8 0 -12 -4 -9 -9z"/>
<path d="M1950 6481 c0 -6 4 -13 10 -16 6 -3 7 1 4 9 -7 18 -14 21 -14 7z"/>
<path d="M3266 6478 c3 -5 10 -6 15 -3 13 9 11 12 -6 12 -8 0 -12 -4 -9 -9z"/>
<path d="M1116 6447 c3 -10 9 -15 12 -12 3 3 0 11 -7 18 -10 9 -11 8 -5 -6z"/>
<path d="M3075 6451 c-3 -5 -2 -12 3 -15 5 -3 9 1 9 9 0 17 -3 19 -12 6z"/>
<path d="M1473 6395 c0 -8 4 -12 9 -9 5 3 6 10 3 15 -9 13 -12 11 -12 -6z"/>
<path d="M1334 6343 c5 -9 -2 -13 -25 -13 -46 0 -194 -47 -240 -76 -21 -13
-42 -24 -46 -24 -20 0 -165 -140 -194 -186 -11 -19 -26 -31 -31 -28 -6 4 -8 2
-4 -4 9 -14 -35 -103 -47 -95 -6 3 -7 1 -3 -5 4 -6 -1 -37 -10 -69 -10 -32
-17 -66 -16 -75 0 -10 -2 -18 -6 -18 -4 0 -7 -30 -6 -68 1 -39 -4 -70 -10 -74
-8 -6 -8 -8 0 -8 12 0 12 -28 1 -47 -4 -6 -3 -14 2 -17 4 -3 9 -17 9 -31 0
-13 -4 -22 -9 -20 -4 3 -11 1 -14 -5 -4 -6 -1 -9 6 -8 15 4 20 -94 5 -104 -7
-5 -7 -8 2 -8 9 0 10 -5 3 -19 -6 -10 -7 -21 -4 -25 11 -11 12 -39 3 -56 -5
-10 -6 -21 -2 -25 11 -10 9 -69 -3 -77 -7 -5 -6 -8 1 -8 12 0 12 -29 0 -48 -4
-6 -3 -12 1 -12 11 0 10 -141 -1 -159 -6 -10 -5 -12 2 -7 16 9 15 -7 0 -22 -7
-7 -8 -12 -2 -12 11 0 12 -209 1 -227 -5 -7 -4 -13 1 -13 5 0 8 -10 7 -22 -1
-13 -3 -23 -4 -23 -2 0 -4 -8 -6 -18 -2 -9 1 -15 6 -11 12 7 11 -3 -2 -28 -6
-11 -7 -18 -1 -14 11 7 10 -93 -1 -111 -5 -7 -4 -13 1 -13 5 0 8 -10 7 -22 -1
-13 -3 -23 -4 -23 -2 0 -4 -8 -6 -18 -2 -9 1 -15 6 -11 12 7 11 -3 -2 -28 -6
-11 -7 -18 -1 -14 11 7 10 -93 -1 -111 -5 -7 -4 -13 1 -13 5 0 8 -10 7 -22 -1
-13 -3 -23 -4 -23 -2 0 -4 -8 -6 -18 -2 -9 1 -15 6 -11 12 7 11 -3 -2 -28 -6
-11 -7 -18 -1 -14 11 7 10 -93 -1 -111 -5 -7 -4 -13 1 -13 5 0 8 -10 7 -22 -1
-13 -3 -23 -4 -23 -2 0 -4 -8 -6 -18 -2 -9 1 -15 6 -11 12 7 11 -3 -2 -28 -6
-11 -7 -18 -1 -14 11 7 11 -53 -1 -71 -5 -7 -4 -13 1 -13 10 0 10 -55 0 -65
-4 -4 -1 -14 7 -21 11 -12 225 -14 1339 -14 l1326 0 0 1189 0 1188 30 -3 30
-4 0 168 0 168 -42 1 c-24 1 -52 2 -63 2 -11 1 -50 0 -87 -2 -38 -1 -68 1 -68
6 0 6 -5 6 -12 0 -7 -5 -44 -7 -83 -6 -88 4 -85 4 -117 -1 -16 -2 -28 0 -28 6
0 6 -6 5 -15 -2 -11 -9 -18 -10 -28 -1 -8 6 -17 8 -20 5 -11 -11 -57 -13 -57
-2 0 6 -6 5 -15 -2 -11 -9 -18 -10 -28 -1 -8 6 -17 8 -20 5 -11 -11 -57 -13
-57 -3 0 6 -6 7 -12 2 -14 -8 -166 -8 -175 1 -3 3 -13 1 -23 -4 -18 -9 -45 -8
-56 3 -4 4 -13 2 -20 -4 -8 -7 -14 -7 -19 1 -4 7 -13 7 -27 -1 -15 -8 -22 -8
-28 1 -6 9 -9 9 -13 -1 -3 -8 -6 -9 -6 -3 -1 8 -14 9 -41 4 -22 -4 -43 -3 -46
1 -3 5 -15 4 -26 -2 -16 -9 -23 -8 -29 2 -7 12 -9 11 -9 0 0 -11 -3 -12 -12
-3 -8 8 -17 8 -31 0 -15 -7 -22 -7 -28 3 -7 12 -9 11 -9 0 0 -11 -3 -12 -12
-3 -8 8 -17 8 -32 0 -12 -6 -21 -7 -23 -1 -2 5 -26 6 -57 3 -63 -7 -151 -5
-165 5 -6 3 -11 3 -11 -2 0 -4 -18 -8 -40 -8 -22 0 -40 2 -40 5 0 3 -19 4 -42
2 -24 -1 -49 -3 -55 -2 -29 0 -46 0 -97 -1 -30 -1 -58 1 -64 5 -6 3 -12 1 -14
-5 -2 -7 -12 -7 -31 0 -18 7 -26 7 -22 1 9 -14 -18 -12 -34 3 -11 10 -13 10
-7 0z"/>
<path d="M3536 6186 c2 -200 -1 -185 32 -183 l27 2 0 99 0 98 95 2 c129 4 167
25 184 101 6 28 5 30 -24 30 -19 1 -30 -4 -30 -13 0 -7 -13 -26 -28 -41 -26
-26 -34 -28 -113 -30 l-85 -2 1 35 c2 43 -3 51 -35 52 l-25 1 1 -151z"/>
<path d="M3952 6321 c-8 -19 -8 -127 0 -156 33 -126 157 -196 290 -162 52 13
123 78 143 130 19 50 25 129 14 172 -7 25 -14 30 -39 31 -30 2 -30 1 -23 -40
16 -93 -8 -180 -61 -218 -60 -43 -173 -36 -221 13 -42 43 -63 154 -44 228 6
21 -51 23 -59 2z"/>
<path d="M4496 6330 c-1 -3 -2 -77 -2 -164 l1 -159 28 -4 c15 -2 27 0 28 4 1
4 2 51 3 103 l1 94 70 1 c125 1 149 -17 160 -125 4 -36 9 -68 11 -71 2 -3 17
-6 34 -7 26 -1 29 2 25 21 -2 12 -7 40 -10 62 -12 88 -18 106 -44 127 -16 13
-22 22 -14 25 27 10 54 39 62 68 8 29 7 31 -21 30 -24 -1 -33 -7 -43 -32 -17
-40 -51 -51 -151 -49 l-79 1 0 40 c0 37 -2 40 -28 40 -16 1 -29 -2 -31 -5z"/>
<path d="M5032 6327 c-8 -10 -122 -311 -122 -322 0 -2 13 -3 30 -3 21 1 31 7
36 22 4 12 15 45 26 74 l19 52 94 0 c104 0 89 12 131 -103 15 -42 20 -47 45
-45 16 1 29 6 29 10 0 7 -110 309 -115 316 -6 8 -55 11 -55 4 0 -5 9 -35 20
-67 11 -32 18 -60 15 -63 -8 -8 -136 -8 -141 -1 -2 4 5 31 16 59 11 28 20 56
20 63 0 16 -36 19 -48 4z"/>
<path d="M5397 6293 c-2 -5 -3 -71 -3 -148 l1 -140 28 -2 c15 -1 28 3 28 10 1
7 2 70 3 141 1 126 1 128 -22 137 -28 11 -30 11 -35 2z"/>
<path d="M5561 6110 l2 -110 26 2 c27 2 27 2 28 92 0 79 -2 93 -20 108 -11 10
-24 18 -29 18 -4 0 -7 -50 -7 -110z"/>
<path d="M475 4949 c-4 -6 -5 -12 -2 -15 2 -3 7 2 10 11 7 17 1 20 -8 4z"/>
<path d="M660 4720 c-9 -6 -10 -10 -3 -10 6 0 15 5 18 10 8 12 4 12 -15 0z"/>
<path d="M515 4640 c-3 -5 -1 -10 4 -10 6 0 11 5 11 10 0 6 -2 10 -4 10 -3 0
-8 -4 -11 -10z"/>
<path d="M515 4240 c3 -5 8 -10 11 -10 2 0 4 5 4 10 0 6 -5 10 -11 10 -5 0 -7
-4 -4 -10z"/>
<path d="M635 4141 c-3 -5 -2 -12 3 -15 5 -3 9 1 9 9 0 17 -3 19 -12 6z"/>
<path d="M513 3885 c0 -8 4 -12 9 -9 5 3 6 10 3 15 -9 13 -12 11 -12 -6z"/>
<path d="M1015 2705 c-7 -5 -79 -190 -160 -410 -142 -384 -148 -403 -146 -470
1 -38 8 -99 17 -135 15 -65 89 -230 104 -230 4 0 31 66 60 148 29 81 66 185
83 232 16 47 69 202 118 345 48 143 90 253 93 245 3 -8 26 -80 51 -160 26 -80
54 -165 62 -190 8 -25 17 -52 20 -60 3 -8 43 -125 89 -260 47 -135 100 -290
118 -346 l33 -101 -293 1 c-284 1 -292 0 -276 -17 24 -27 188 -103 252 -118
63 -14 670 -22 670 -9 0 9 -50 149 -130 365 -28 77 -92 250 -142 385 -49 135
-96 259 -103 275 -7 17 -20 50 -28 75 -37 104 -160 435 -163 439 -9 10 -317 6
-329 -4z"/>
<path d="M2499 2695 c-3 -125 -3 -1525 1 -1527 3 0 69 -2 147 -3 96 -1 143 1
146 9 2 6 3 48 2 94 l-1 82 375 0 c398 -1 447 -6 549 -50 35 -15 70 -42 103
-79 l50 -56 155 -1 c176 0 166 -8 117 94 -34 71 -104 140 -187 184 l-70 36 70
33 c141 66 228 149 283 271 90 198 69 482 -48 651 -68 99 -178 186 -289 227
-135 51 -156 52 -799 54 -598 1 -603 1 -604 -19z m1200 -259 c35 -10 83 -26
106 -37 123 -58 188 -200 181 -394 -9 -211 -104 -332 -311 -393 -39 -12 -138
-16 -465 -19 l-416 -5 2 424 c1 232 2 428 3 434 1 9 113 11 419 9 359 -1 426
-4 481 -19z"/>
<path d="M4492 2710 c-6 -4 -8 -195 -3 -246 1 -7 119 -10 391 -10 l390 1 1
-25 c0 -14 0 -303 0 -642 0 -470 3 -618 12 -618 37 1 149 35 213 66 l74 35 0
589 c0 461 3 589 13 592 6 2 74 3 149 2 119 -1 138 1 142 15 11 36 5 241 -7
242 -42 4 -1370 3 -1375 -1z"/>
</g>
</svg>
